<?xml version="1.0" encoding="utf-8"?>
<!-- Generator: Adobe Illustrator 21.0.0, SVG Export Plug-In . SVG Version: 6.00 Build 0)  -->
<svg version="1.1" id="Layer_1" xmlns="http://www.w3.org/2000/svg" xmlns:xlink="http://www.w3.org/1999/xlink" x="0px" y="0px"
	 viewBox="0 0 1204 207" style="enable-background:new 0 0 1204 207;" xml:space="preserve">
<style type="text/css">
	.st0{fill:#C7C7C7;}
	.st1{fill:#F7D21C;}
	.st2{fill:#DDDDDD;}
</style>
<path class="st0" d="M111.8,22.7c4.7,2.7,7.8,7.5,10.2,12.3c0.9,7.5,0.3,12.9-4.1,19.1c-5.5,5.6-10.1,6.5-17.6,6.9
	c-11.8,0.9-18.8,3.6-26.7,12.8c-4.1,5.9-4.2,12.1-4.6,19.1c-0.6,7-2.3,12.7-7.5,17.6c-6.4,4.2-11.9,4.5-19.5,3.6
	c-5.7-2.1-9.2-5.6-12-11c-1.8-5.7-1.8-11.7,0.2-17.3c3.6-5.3,7.5-9.2,13.8-10.7c2.5-0.2,4.9-0.3,7.4-0.4c6.4-0.3,11.1-1.2,16.6-4.6
	c0.6-0.4,1.3-0.7,1.9-1.1c5.3-3.3,9-8.1,10.7-14.2c0.4-2.8,0.5-5.5,0.5-8.4c0.2-8.1,1.4-14.1,6.9-20.4
	C94.9,19.8,103.5,19.8,111.8,22.7z"/>
<path class="st0" d="M165.3,76.5c5.2,3,8.9,7.8,10.8,13.5c0.7,7.3-0.8,12.4-4.7,18.7c-4.9,4.9-10.2,6.7-17,6.8c-0.8,0-1.5,0-2.3,0
	c-10,0.3-15.4,2.6-22.4,9.9c-6,7.3-7,13.5-7.2,22.9c-0.2,6.1-1.8,10-5.8,14.5c-5.7,5.1-9.8,5.9-17.4,5.7c-5.7-0.7-8.9-3-12.8-7.1
	c-3.8-5-4.2-10-3.9-16.2c0.9-6.2,3.9-10.2,8.7-14.1c4.8-2.7,9.9-2.4,15.2-2.5c8.5-0.3,15-3.6,21.5-9c6.3-7.9,7.2-13.7,7.4-23.5
	c0.3-6.1,1.9-10.1,6-14.7C148.4,75,156.2,72.5,165.3,76.5z"/>
<path class="st1" d="M111.3,76.5c5,2.8,8.2,7.5,10.8,12.5c0.5,6.3,0.6,11.6-3,17c-0.6,0.9-1.1,1.7-1.7,2.6
	c-4.1,4.2-8.8,6.5-14.7,6.8c-1.5,0-3,0-4.5,0c-7.1,0.2-12.4,0.9-18.1,5.6c-0.6,0.5-1.3,1-1.9,1.5c-6,5.3-8.8,11.5-9.4,19.5
	c-0.1,2.1-0.2,4.2-0.2,6.3c-0.1,6-1.8,9.9-5.8,14.4c-5.7,5.1-9.8,5.9-17.4,5.7c-4.8-0.6-7.9-1.9-11.2-5.4
	c-4.1-5.6-5.9-11.4-5.5-18.3c1.1-5.5,4-9.4,8.2-13.1c4.5-2.8,8.9-2.8,14-2.9c9.6-0.3,18-3,24.8-10.2c4.9-6.6,5.6-11.8,6-19.9
	c0.4-7.9,1.8-13.8,7.6-19.6C95.8,74.2,103.5,73.2,111.3,76.5z"/>
<path class="st1" d="M57.3,23.5c5.2,3,8.9,7.8,10.8,13.5c0.5,6,0.5,10.9-3,16c-4,4.6-8.3,8.3-14.4,9.4C44.2,62.8,39.9,61.2,35,57
	c-4.6-4.5-7-8.9-7.4-15.3C27.8,36.7,29,33,32,29C39.2,22.3,47.8,19.4,57.3,23.5z"/>
<path class="st1" d="M165.4,23.1c5.4,4.1,9.9,9,10.8,15.9c0.4,6.4-1.3,11-5.3,16c-4.4,4.3-8.5,6.4-14.6,6.6
	c-6.6-0.4-11.2-2-15.7-6.9c-4.3-5.1-5.3-10.2-5.1-16.8c1-6.3,4.7-10.4,9.5-14.4C151.2,20.5,159.1,21.1,165.4,23.1z"/>
<path class="st1" d="M166.5,130.7c5,3,7.6,6.8,9.5,12.3c0.8,6.2,0.5,11.8-2.7,17.3c-3,3.9-6.8,6.2-11.3,7.7c-6.2,0.5-11.8,0.8-17-3
	c-5.1-5.2-8.1-8.6-8.4-16.1c0.1-6.9,1.7-11,6.4-15.9C149.2,127.2,159,127.3,166.5,130.7z"/>
<g>
	<path class="st1" d="M295.2,120.8c0,0.5-0.5,0.7-1.4,0.7c-0.7,0-1.8-0.1-3.3-0.2c-1.4-0.1-2.5-0.2-3.3-0.2c-0.7,0-1.9,0.1-3.4,0.2
		c-1.5,0.1-2.6,0.2-3.4,0.2c-1.1,0-2.5-3-4.2-9c-1.7-6-3.5-9-5.2-9.1c-1.5-0.1-5.3-0.1-11.4-0.1h-9.3c-6.5,0-10.2,0-11.1,0.1
		c-1.4,0.1-2.9,3.2-4.5,9.1c-1.6,5.9-2.8,8.9-3.7,8.9h-13.3c-0.8,0-1.2-0.3-1.2-0.8c0-0.4,0.3-1.3,0.8-2.7l14.5-39.6
		c1.2-3.2,4.9-12.4,11.1-27.6c1.1-2.5,2.6-6.3,4.5-11.4c0.5-1.5,1-2.2,1.5-2.2c0.7,0,1.9,0.1,3.3,0.3c1.5,0.2,2.6,0.3,3.3,0.3
		c0.7,0,1.8-0.1,3.2-0.3c1.4-0.2,2.5-0.3,3.2-0.3c0.4,0,0.8,0.7,1.5,2.2c0.9,2.2,5.6,14.1,14,35.6
		C289.3,105.2,295.2,120.5,295.2,120.8z M267.7,88.2c0-1.1-1.8-6.3-5.3-15.4c-3.4-8.8-5.8-14.6-7.3-17.4
		c-8.2,20.8-12.2,31.7-12.2,32.7c0,1.3,1.5,2.1,4.5,2.4c0.2,0,2.1,0.1,5.8,0.1h6.1C264.9,90.5,267.7,89.8,267.7,88.2z"/>
	<path class="st1" d="M376.2,39.9c0,4.5-0.2,11.4-0.5,20.5c-0.3,9.1-0.5,16-0.5,20.6c0,4.3,0,10.7,0.1,19.3c0.1,8.6,0.1,15,0.1,19.3
		c0,1.3-0.5,1.9-1.5,1.9c-0.6,0-1.5-0.1-2.7-0.2c-1.2-0.1-2.1-0.2-2.7-0.2c-0.6,0-1.6,0.1-2.9,0.2c-1.3,0.1-2.3,0.2-2.9,0.2
		c-0.7,0-1.6-0.7-2.5-1.9c-8.5-11.5-21.4-28.6-38.7-51.3c-2.7-3.5-4.2-5.4-4.7-5.8c-0.4,0-0.6,0.8-0.6,2.4c0,6.1,0.1,15.2,0.3,27.3
		c0.2,12.2,0.3,21.3,0.3,27.3c0,1.3-0.4,1.9-1.2,1.9c-0.7,0-1.7-0.1-3.1-0.2c-1.4-0.1-2.4-0.2-3.1-0.2c-0.7,0-1.8,0.1-3.2,0.2
		c-1.4,0.1-2.5,0.2-3.2,0.2c-1,0-1.5-0.4-1.5-1.2c0-4.3,0.2-10.9,0.6-19.6c0.4-8.7,0.6-15.3,0.6-19.6c0-4.8-0.2-13.4-0.5-25.8
		c-0.1-3.2-0.3-8.1-0.6-14.5L302,40c0-0.6,0.4-0.9,1.4-0.9c2.6,0,4.6-0.1,6-0.2c0.6,0,1.6-0.2,3.1-0.5c1.3-0.2,2.3-0.4,3.1-0.4
		c0.4,0,1,0.6,1.8,1.7c9.1,12.4,22.9,31,41.6,55.5c0.8,1,1.6,1.9,2.3,2.7c0.3-1.7,0.4-5.4,0.4-11.3c0-5.1-0.2-12.8-0.6-23
		c-0.4-10.2-0.6-17.9-0.6-23c0-1.3,0.4-2,1.2-2c0.7,0,1.8,0.1,3.2,0.2c1.4,0.1,2.5,0.2,3.2,0.2c0.7,0,1.9-0.1,3.4-0.2
		c1.5-0.1,2.6-0.2,3.4-0.2C375.8,38.6,376.2,39,376.2,39.9z"/>
	<path class="st1" d="M461.5,79.6c0,11.1-3.2,20.6-9.5,28.7c-6.9,8.8-15.6,13.2-26.4,13.2c-2,0-5.1-0.1-9.2-0.2
		c-4.1-0.2-7.2-0.2-9.2-0.2c-1.9,0-4.6,0.1-8.4,0.2c-3.7,0.2-6.5,0.2-8.4,0.2c-1,0-1.5-0.5-1.5-1.5c0-4.3,0.2-10.8,0.5-19.4
		c0.3-8.7,0.5-15.2,0.5-19.5c0-4.6-0.2-11.4-0.5-20.6c-0.3-9.2-0.5-16.1-0.5-20.6c0-0.8,0.5-1.2,1.5-1.2c1.5,0,3.6,0,6.5,0.1
		c2.9,0,5.1,0.1,6.5,0.1c1.3,0,3.4,0,6.1-0.1c2.8,0,4.8-0.1,6.3-0.1c13.7,0,23.8,2.6,30.5,7.7c4.8,3.7,8.5,8.7,11.2,14.9
		C460.2,67.1,461.5,73.2,461.5,79.6z M447,79.6c0-8.5-2.4-15.4-7.3-20.8c-5-5.6-11.8-8.3-20.2-8.3c-7,0-9.8,0-8.4-0.1
		c-4.6,0.2-6.9,1.1-6.9,2.5c0,3-0.1,7.6-0.2,13.6c-0.1,6-0.2,10.6-0.2,13.6c0,3,0.1,7.5,0.2,13.5c0.1,6,0.2,10.5,0.2,13.5
		c0,1.5,2.4,2.4,7.1,2.6c-0.6,0,2.2-0.1,8.6-0.1c4.5,0,8.1-0.5,10.8-1.4c3.3-1.2,6.3-3.4,8.9-6.6C444.5,95.7,447,88.3,447,79.6z"/>
	<path class="st1" d="M534.9,121c0,0.3-0.3,0.5-0.9,0.5c-0.7,0-1.9-0.1-3.4-0.2c-1.5-0.1-2.7-0.2-3.4-0.2c-0.8,0-2.1,0.1-3.7,0.2
		c-1.6,0.1-2.9,0.2-3.7,0.2c-0.9,0-1.6-0.5-2.1-1.5c-1.3-2.7-4.8-11-10.8-24.9c-0.6-1.4-2-2.3-4.3-2.6c-0.5,0-2.3-0.1-5.4-0.1
		c-5.4,0-8.7,0.1-9.7,0.2c-0.8,0.1-1.2,1.1-1.2,3c0,2.8,0.1,6.9,0.4,12.4c0.3,5.5,0.4,9.6,0.4,12.3c0,0.8-0.4,1.2-1.2,1.2
		c-0.8,0-2-0.1-3.6-0.3c-1.6-0.2-2.8-0.3-3.6-0.3c-0.7,0-1.7,0.1-3.1,0.2c-1.4,0.1-2.4,0.2-3.1,0.2c-1,0-1.5-0.5-1.5-1.4
		c0-4.4,0.2-10.9,0.6-19.7c0.4-8.8,0.6-15.3,0.6-19.7c0-12.4-0.5-25.7-1.4-39.8l-0.1-0.9c0-0.8,0.8-1.2,2.5-1.2
		c3.4,0,8.5-0.1,15.2-0.3c6.8-0.2,11.8-0.3,15.2-0.3c8.7,0,15.8,2.1,21,6.3c5.8,4.6,8.7,11.1,8.7,19.6c0,5.8-0.8,10.4-2.4,13.8
		c-1.7,3.5-4.7,6.9-9.2,10.1c-0.7,0.5-1.1,1-1.1,1.5c0,0.6,2.4,5.8,7.1,15.7C532.6,115.1,534.9,120.4,534.9,121z M518.7,67.4
		c0-7.1-2-11.9-6.1-14.3c-3-1.8-8.5-2.7-16.4-2.7c-6.4,0-9.6,0.5-9.7,1.5c-0.3,2.1-0.4,7.8-0.4,17.1v11.3c0.1,0.1,0.4,0.2,0.8,0.2
		c0.7,0.1,1.9,0.2,3.5,0.3c3.7,0.2,7.8,0.3,12.1,0.3C513.3,81.2,518.7,76.6,518.7,67.4z"/>
	<path class="st1" d="M598.9,109.6c0,0.6-0.2,1.5-0.5,2.7c-0.4,1.5-0.6,2.4-0.6,2.7c-0.1,1.4-0.4,3.5-0.8,6.2
		c-0.2,0.7-0.7,1.1-1.5,1.1c-0.4,0-1.1-0.1-2.2-0.2c-4.8-0.7-12.3-1.1-22.5-1.1c-2.9,0-7.2,0.1-13,0.2s-10.1,0.2-13,0.2
		c-1.3,0-1.9-0.6-1.9-1.7c0-4.4,0.2-11,0.7-19.9c0.5-8.8,0.7-15.5,0.7-19.9c0-4.5-0.2-12.9-0.7-25.1c-0.1-3.2-0.3-7.9-0.6-14.1
		l-0.1-0.8c0-0.9,0.5-1.4,1.5-1.4c2.8,0,6.9,0.1,12.4,0.2c5.5,0.2,9.6,0.2,12.4,0.2c2.6,0,6.6-0.1,11.8-0.2
		c5.3-0.2,9.2-0.2,11.8-0.2c1.9,0,2.9,0.6,3,1.7c0.8,5.2,1.2,8.4,1.2,9.7c0,0.9-0.4,1.4-1.3,1.4c-3.3,0-8.4-0.2-15.2-0.6
		c-6.8-0.4-11.9-0.6-15.3-0.6c-3.2,0-5.3,0.4-6.1,1.3c-0.8,0.9-1.3,3-1.3,6.4v8.8c0,2.4,0.1,3.8,0.2,4.2c0.4,1.2,1.4,1.8,3.1,1.8
		c0.5,0,1.1,0,2-0.1c0.9,0,1.6,0,2,0c7.7,0,14.7-0.1,20.8-0.4c2.4-0.1,5.2-0.3,8.5-0.6c0.8-0.1,1.2,0.3,1.2,1.1
		c0,1.3-0.1,3.2-0.4,5.8c-0.3,2.6-0.4,4.5-0.4,5.8c0,0.7-0.6,1.1-1.8,1.1c-0.5,0-2.2-0.1-5.3-0.4c-2.2-0.2-7.2-0.4-14.9-0.4
		c-6.5,0-10.6,0.1-12.3,0.2c-1.6,0.1-2.5,0.9-2.7,2.5c0-0.3,0.1,1.2,0.1,4.5v8.7c0,4.1,0.6,6.7,1.9,7.7c1,0.8,3.4,1.2,7.4,1.2
		l6.5-0.1c2.8,0,10.5-0.5,23.2-1.4l0.9-0.1C598.5,108.1,598.9,108.6,598.9,109.6z M587.7,21.2c-0.6,1.6-4.9,4.6-13.1,9
		c-7.9,4.3-12.8,6.4-14.7,6.4c-0.7,0-1.3-1-1.8-3c-0.4-1.5-0.6-2.8-0.6-3.9c0-0.4,0.4-0.8,1.1-1.1c6.5-3.2,13.2-7.5,20.2-12.8
		c0.2-0.2,0.5-0.3,0.9-0.5c0.2,0.1,0.5,0.3,0.8,0.5c1.7,1.4,3.9,3,6.6,4.6C587.2,20.6,587.4,20.8,587.7,21.2z"/>
	<path class="st1" d="M655.4,44.6c-0.8,1.3-1.9,3.3-3.2,5.9c-0.4,1.2-1.2,3-2.3,5.2c-0.2,0.4-0.6,0.5-0.9,0.5c0,0-1.9-0.7-5.7-2.1
		c-3.8-1.4-7-2.1-9.5-2.1c-7.2,0-10.9,3.2-10.9,9.6c0,3.5,2.5,6.6,7.6,9.3c8.5,4.5,13.3,7,14.2,7.7c5.1,4.1,7.6,9.5,7.6,16.4
		c0,8.8-3.5,15.8-10.5,20.9c-6.3,4.6-14,6.9-23.1,6.9c-4.3,0-6.5-0.5-6.9-1.4c-0.2-1.5-0.5-3.7-1.1-6.6c-0.3-1.2-0.8-3-1.5-5.3
		c-0.1-0.4-0.2-0.7-0.2-1c0-0.6,0.3-0.8,0.9-0.8c0.9,0,2.4,0.1,4.3,0.3c2,0.2,3.4,0.3,4.4,0.3c12.2,0,18.3-3.9,18.3-11.8
		c0-3.9-2.5-7.2-7.4-10c-9-5.1-13.6-7.8-13.8-8c-5-4-7.4-9.4-7.4-16.2c0-7.3,2.4-13.2,7.2-17.6c4.7-4.3,10.8-6.4,18.2-6.4
		c3.2,0,6.8,0.5,10.9,1.5c4.5,1.1,7.8,2.5,10,4.1C655,44,655.2,44.2,655.4,44.6z"/>
	<path class="st1" d="M767.9,120.8c0,0.5-0.5,0.7-1.4,0.7c-0.7,0-1.8-0.1-3.3-0.2c-1.4-0.1-2.5-0.2-3.3-0.2c-0.7,0-1.9,0.1-3.4,0.2
		c-1.5,0.1-2.6,0.2-3.4,0.2c-1.1,0-2.5-3-4.2-9c-1.7-6-3.5-9-5.2-9.1c-1.5-0.1-5.3-0.1-11.4-0.1H723c-6.5,0-10.2,0-11.1,0.1
		c-1.4,0.1-2.9,3.2-4.5,9.1c-1.6,5.9-2.8,8.9-3.7,8.9h-13.3c-0.8,0-1.2-0.3-1.2-0.8c0-0.4,0.3-1.3,0.8-2.7l14.5-39.6
		c1.2-3.2,4.9-12.4,11.1-27.6c1.1-2.5,2.6-6.3,4.5-11.4c0.5-1.5,1-2.2,1.5-2.2c0.7,0,1.9,0.1,3.3,0.3c1.5,0.2,2.6,0.3,3.3,0.3
		c0.7,0,1.8-0.1,3.2-0.3c1.4-0.2,2.5-0.3,3.2-0.3c0.4,0,0.8,0.7,1.5,2.2c0.9,2.2,5.6,14.1,14,35.6
		C762,105.2,767.9,120.5,767.9,120.8z M740.4,88.2c0-1.1-1.8-6.3-5.3-15.4c-3.4-8.8-5.8-14.6-7.3-17.4
		c-8.2,20.8-12.2,31.7-12.2,32.7c0,1.3,1.5,2.1,4.5,2.4c0.2,0,2.1,0.1,5.8,0.1h6.1C737.5,90.5,740.4,89.8,740.4,88.2z"/>
	<path class="st1" d="M790.8,120.3c0,0.8-0.6,1.2-1.7,1.2c-0.7,0-1.8-0.1-3.2-0.2c-1.5-0.1-2.5-0.2-3.3-0.2c-0.7,0-1.9,0.1-3.3,0.2
		c-1.5,0.1-2.5,0.2-3.3,0.2c-1,0-1.5-0.5-1.5-1.4c0-4.5,0.2-11.3,0.6-20.3c0.4-9,0.6-15.8,0.6-20.4c0-4.4-0.2-10.9-0.6-19.7
		c-0.4-8.8-0.6-15.3-0.6-19.7c0-1,0.5-1.5,1.4-1.5c0.7,0,1.9,0.1,3.4,0.2c1.5,0.1,2.7,0.2,3.5,0.2c0.7,0,1.8-0.1,3.2-0.2
		s2.5-0.2,3.2-0.2c1,0,1.5,0.4,1.5,1.2c0,4.4-0.2,11-0.5,19.9c-0.3,8.8-0.5,15.4-0.5,19.9c0,4.5,0.2,11.3,0.5,20.4
		C790.6,108.9,790.8,115.7,790.8,120.3z"/>
	<path class="st1" d="M854.7,108c0,1.4-0.3,3.5-0.8,6.3c-0.5,2.8-0.8,5-0.8,6.4c0,0.9-0.5,1.3-1.4,1.3c-2.4,0-5.9-0.1-10.5-0.2
		c-4.7-0.2-8.2-0.2-10.5-0.2h-28.1c-1.1,0-1.8-0.4-2-1.2c-0.9-4.4-1.3-7.7-1.3-9.9c0-0.4,6-10.1,18-28.9c12-18.8,18-28.7,18-29.7
		c0-0.4-0.5-0.6-1.5-0.6h-31.5c-0.8,0-1.2-0.4-1.2-1.2c0-0.3,0.3-2.1,0.9-5.4c0.6-3.3,0.9-5.2,1.1-5.7c0.1-0.5,0.6-0.8,1.4-0.8
		c1.5,0,3.8,0.1,6.8,0.4c3,0.3,5.3,0.4,6.8,0.4h33.2c0.7,0,1.1,0.3,1.3,1c0.6,2.4,0.9,5.3,0.9,8.8c0,0.2-6.2,10.1-18.7,29.7
		c-12.5,19.6-18.7,29.7-18.8,30.3c0.2,0.3,0.6,0.4,1.1,0.4c11.4,0,20.2-0.2,26.2-0.7c0.8-0.1,2.6-0.3,5.3-0.7c2.2-0.3,4-0.5,5.3-0.5
		C854.5,107.3,854.7,107.5,854.7,108z"/>
	<path class="st1" d="M937.4,120.8c0,0.5-0.5,0.7-1.4,0.7c-0.7,0-1.8-0.1-3.3-0.2c-1.4-0.1-2.5-0.2-3.3-0.2c-0.7,0-1.9,0.1-3.4,0.2
		c-1.5,0.1-2.6,0.2-3.4,0.2c-1.1,0-2.5-3-4.2-9c-1.7-6-3.5-9-5.2-9.1c-1.5-0.1-5.3-0.1-11.4-0.1h-9.3c-6.5,0-10.2,0-11.1,0.1
		c-1.4,0.1-2.9,3.2-4.5,9.1c-1.6,5.9-2.8,8.9-3.7,8.9h-13.3c-0.8,0-1.2-0.3-1.2-0.8c0-0.4,0.3-1.3,0.8-2.7L874,78.4
		c1.2-3.2,4.9-12.4,11.1-27.6c1.1-2.5,2.6-6.3,4.5-11.4c0.5-1.5,1-2.2,1.5-2.2c0.7,0,1.9,0.1,3.3,0.3c1.5,0.2,2.6,0.3,3.3,0.3
		c0.7,0,1.8-0.1,3.2-0.3c1.4-0.2,2.5-0.3,3.2-0.3c0.4,0,0.8,0.7,1.5,2.2c0.9,2.2,5.6,14.1,14,35.6
		C931.5,105.2,937.4,120.5,937.4,120.8z M909.9,88.2c0-1.1-1.8-6.3-5.3-15.4c-3.4-8.8-5.8-14.6-7.3-17.4
		C889.1,76.2,885,87.1,885,88.1c0,1.3,1.5,2.1,4.5,2.4c0.2,0,2.1,0.1,5.8,0.1h6.1C907,90.5,909.9,89.8,909.9,88.2z"/>
	<path class="st1" d="M1016.4,118.6c0.1,0.9-0.4,1.3-1.5,1.3c-0.6,0-2-0.6-4.3-1.7c-2.3-1.1-3.7-1.9-4.3-2.4
		c-7.2,4.9-15.8,7.4-25.8,7.4c-11.6,0-21.1-4.3-28.6-13c-7.1-8.2-10.6-18.2-10.6-30c0-12.1,3.5-22.2,10.5-30.4
		c7.4-8.7,17-13,28.8-13c6.1,0,11.9,1.4,17.5,4.3c5.6,2.9,10.1,6.8,13.4,11.7c0.5,0.7,0.8,1.3,0.8,1.7c0,0.6-1.4,2.4-4.2,5.5
		c-2.8,3.1-4.4,4.6-4.9,4.6c-0.3,0-1.5-1.2-3.6-3.6c-2.5-2.9-4.9-5.1-7.2-6.7c-3.6-2.4-7.3-3.6-11.2-3.6c-7.4,0-13.6,3.1-18.3,9.3
		c-4.3,5.7-6.5,12.4-6.5,20.1c0,7.5,2.2,14.2,6.7,20c4.8,6.3,10.9,9.4,18.3,9.4c7.2,0,13.8-2,19.9-5.9c-0.1-1.1-0.4-4.8-1-11.2
		c-0.5-4.6-0.7-8.3-0.7-11.2c0-0.7,0.4-1,1.3-1c0.7,0,1.9,0,3.4,0.1c1.5,0.1,2.6,0.1,3.4,0.1c0.7,0,1.9,0,3.4-0.1
		c1.5-0.1,2.7-0.1,3.4-0.1c0.8,0,1.2,0.6,1.2,1.9c0,1.4,0,3.5-0.1,6.2c-0.1,2.8-0.1,4.9-0.1,6.2c0,5.7,0.4,13.4,1.1,23L1016.4,118.6
		z"/>
	<path class="st1" d="M1098.8,120.8c0,0.5-0.5,0.7-1.4,0.7c-0.7,0-1.8-0.1-3.3-0.2c-1.4-0.1-2.5-0.2-3.3-0.2c-0.7,0-1.9,0.1-3.4,0.2
		c-1.5,0.1-2.6,0.2-3.4,0.2c-1.1,0-2.5-3-4.2-9c-1.7-6-3.5-9-5.2-9.1c-1.5-0.1-5.3-0.1-11.4-0.1h-9.3c-6.5,0-10.2,0-11.1,0.1
		c-1.4,0.1-2.9,3.2-4.5,9.1c-1.6,5.9-2.8,8.9-3.7,8.9h-13.3c-0.8,0-1.2-0.3-1.2-0.8c0-0.4,0.3-1.3,0.8-2.7l14.5-39.6
		c1.2-3.2,4.9-12.4,11.1-27.6c1.1-2.5,2.6-6.3,4.5-11.4c0.5-1.5,1-2.2,1.5-2.2c0.7,0,1.9,0.1,3.3,0.3c1.5,0.2,2.6,0.3,3.3,0.3
		c0.7,0,1.8-0.1,3.2-0.3c1.4-0.2,2.5-0.3,3.2-0.3c0.4,0,0.8,0.7,1.5,2.2c0.9,2.2,5.6,14.1,14,35.6
		C1092.9,105.2,1098.8,120.5,1098.8,120.8z M1071.3,88.2c0-1.1-1.8-6.3-5.3-15.4c-3.4-8.8-5.8-14.6-7.3-17.4
		c-8.2,20.8-12.2,31.7-12.2,32.7c0,1.3,1.5,2.1,4.5,2.4c0.2,0,2.1,0.1,5.8,0.1h6.1C1068.5,90.5,1071.3,89.8,1071.3,88.2z"/>
</g>
<g>
	<path class="st2" d="M255.1,163.9c0,5.5-1.6,10.2-4.7,14.2c-3.4,4.4-7.8,6.5-13.1,6.5c-1,0-2.5,0-4.6-0.1c-2-0.1-3.6-0.1-4.6-0.1
		c-0.9,0-2.3,0-4.1,0.1s-3.2,0.1-4.1,0.1c-0.5,0-0.7-0.2-0.7-0.7c0-2.1,0.1-5.3,0.2-9.6c0.2-4.3,0.2-7.5,0.2-9.7
		c0-2.3-0.1-5.7-0.2-10.2c-0.2-4.6-0.2-8-0.2-10.2c0-0.4,0.3-0.6,0.8-0.6c0.7,0,1.8,0,3.2,0s2.5,0,3.2,0c0.7,0,1.7,0,3,0
		c1.4,0,2.4,0,3.1,0c6.8,0,11.8,1.3,15.1,3.8c2.4,1.8,4.2,4.3,5.5,7.4C254.5,157.7,255.1,160.8,255.1,163.9z M247.9,163.9
		c0-4.2-1.2-7.7-3.6-10.3c-2.5-2.8-5.8-4.1-10-4.1c-3.5,0-4.9,0-4.2-0.1c-2.3,0.1-3.4,0.5-3.4,1.3c0,1.5,0,3.8-0.1,6.8
		c-0.1,3-0.1,5.2-0.1,6.8c0,1.5,0,3.7,0.1,6.7c0.1,3,0.1,5.2,0.1,6.7c0,0.7,1.2,1.2,3.5,1.3c-0.3,0,1.1,0,4.3,0c2.2,0,4-0.2,5.4-0.7
		c1.6-0.6,3.1-1.7,4.4-3.3C246.7,171.9,247.9,168.2,247.9,163.9z"/>
	<path class="st2" d="M284.6,169c0,1.4-0.6,2.4-1.9,2.9c-0.8,0.3-6.9,0.9-18.1,1.7c0.3,1.7,1.2,3.2,2.8,4.4c1.6,1.2,3.2,1.7,5,1.7
		c3.1,0,5.9-1,8.5-3c0.3-0.3,0.6-0.5,0.9-0.8c0.2,0,0.3,0,0.3,0.1c0,0,0.4,0.7,1.1,2c0.7,1.3,1,2,1,2.1c0,0.1-0.2,0.3-0.5,0.7
		c-2.9,3-6.6,4.6-11,4.6c-4.5,0-8.1-1.4-10.8-4.1s-4-6.3-4-10.8c0-4,1.3-7.5,3.9-10.5c2.7-3.1,6-4.7,10-4.7c3.7,0,6.7,1.3,9.2,4
		C283.4,162,284.6,165.2,284.6,169z M277.6,167.2c0-1.6-0.6-3.1-1.9-4.3c-1.3-1.3-2.7-1.9-4.3-1.9c-1.8,0-3.4,0.7-4.8,2.2
		c-1.4,1.4-2.1,3.1-2.1,4.9c0,0.4,0.4,0.6,1.1,0.6c2.9,0,6.3-0.3,10.4-0.9C277.1,167.6,277.6,167.4,277.6,167.2z"/>
	<path class="st2" d="M302.4,175.7c0,2.9-1.2,5.2-3.5,7c-2.1,1.6-4.7,2.4-7.7,2.4c-1.2,0-1.8,0-2-0.1c-0.3-0.2-0.5-0.6-0.5-1.4
		c0-0.4-0.1-1.1-0.2-1.9c-0.1-0.9-0.2-1.5-0.2-1.9c0-0.3,0.2-0.4,0.5-0.5c0.3-0.1,0.6-0.1,1.1,0c0.6,0.1,0.9,0.1,0.9,0.1
		c3.7,0,5.5-1.1,5.5-3.4c0-1.1-0.8-2.1-2.4-3c-2.6-1.4-4.2-2.3-4.5-2.7c-1.6-1.4-2.4-3.2-2.4-5.4c0-2.9,1.1-5.2,3.3-6.9
		c2-1.5,4.5-2.2,7.6-2.2c0.3,0,0.5,0.1,0.6,0.4c0.1,0.3,0.4,1,0.7,2.4c0.4,1.3,0.5,2.1,0.5,2.4c0,0.2-0.2,0.4-0.6,0.4
		c-1.3,0.2-2.5,0.3-3.8,0.5c-1.5,0.4-2.3,1.2-2.3,2.5c0,0.9,0.8,1.8,2.4,2.7c2.3,1.3,3.8,2.3,4.5,2.8
		C301.6,171.3,302.4,173.3,302.4,175.7z"/>
	<path class="st2" d="M335.1,158.2c0,0.1,0,0.3-0.1,0.5c-0.8,4.5-1.1,8.3-1.1,11.6c0,0.2,0.2,4.6,0.7,13.2l0,0.4
		c0,0.6-0.2,0.8-0.8,0.8c-0.5,0-1.3,0.1-2.4,0.2s-1.9,0.2-2.4,0.2c-0.4,0-0.7-0.7-0.8-2.1c-0.2-1.4-0.4-2.1-0.6-2.1
		c-0.1,0-0.6,0.4-1.6,1.1c-1.2,0.9-2.2,1.7-3.2,2.1c-1.5,0.8-3.1,1.2-4.6,1.2c-3.8,0-7-1.5-9.6-4.5c-2.5-2.9-3.7-6.3-3.7-10.1
		c0-4.3,1.2-7.9,3.7-10.8c2.6-2.9,6-4.4,10.3-4.4c3,0,5.6,1,7.8,3.1c0.3,0.4,0.8,1,1.6,1.7c0.1,0.1,0.1,0.1,0.2,0.1
		c0.1,0,0.3-0.6,0.5-1.8c0.2-1.2,0.5-1.8,0.8-1.8c0.5,0,1.5,0.1,3,0.4C334.3,157.6,335.1,157.9,335.1,158.2z M327.7,170.4
		c0-2.4-0.7-4.5-2.1-6.2c-1.5-1.9-3.4-2.8-5.8-2.8s-4.3,0.9-5.9,2.8c-1.5,1.8-2.3,3.8-2.3,6.2c0,2.4,0.8,4.4,2.3,6.2
		c1.6,1.8,3.5,2.7,5.9,2.7c2.3,0,4.2-0.9,5.7-2.8C326.9,174.8,327.7,172.8,327.7,170.4z"/>
	<path class="st2" d="M356.7,157.2c0,2.1-0.1,4.1-0.4,5.9c-0.1,0.4-0.3,0.7-0.6,0.7c-0.4,0-1,0-1.9-0.1c-0.8-0.1-1.5-0.1-1.9-0.1
		c-2.5,0-4,0.7-4.7,2.1c-0.4,0.8-0.6,2.6-0.6,5.2v3.2c0,1.1,0,2.8,0.1,5s0.1,3.9,0.1,5c0,0.5-0.2,0.8-0.7,0.8c-0.6,0-1.5,0-2.8,0
		s-2.1,0-2.8,0c-0.4,0-0.7-0.2-0.7-0.7c0-1.6,0-4,0.1-7.1c0-3.2,0.1-5.6,0.1-7.2c0-4.8-0.4-8.7-1.3-11.6c0-0.2-0.1-0.3-0.1-0.4
		c0-0.2,0.1-0.4,0.4-0.5c0.7-0.1,1.7-0.2,3-0.4c2.1-0.4,3.1-0.6,2.9-0.6c0.3,0,0.5,0.6,0.6,1.7c0.1,1.2,0.3,1.7,0.5,1.7
		c0,0,0.1,0,0.1-0.1c0.8-0.5,1.6-1,2.4-1.5c0.9-0.5,1.8-0.9,2.7-1.2c0.8-0.2,1.7-0.4,2.9-0.4C355.9,156.6,356.7,156.8,356.7,157.2z"
		/>
	<path class="st2" d="M376.6,157.2c0,2.1-0.1,4.1-0.4,5.9c-0.1,0.4-0.3,0.7-0.6,0.7c-0.4,0-1,0-1.9-0.1c-0.8-0.1-1.5-0.1-1.9-0.1
		c-2.5,0-4,0.7-4.7,2.1c-0.4,0.8-0.6,2.6-0.6,5.2v3.2c0,1.1,0,2.8,0.1,5s0.1,3.9,0.1,5c0,0.5-0.2,0.8-0.7,0.8c-0.6,0-1.5,0-2.8,0
		s-2.1,0-2.8,0c-0.4,0-0.7-0.2-0.7-0.7c0-1.6,0-4,0.1-7.1c0-3.2,0.1-5.6,0.1-7.2c0-4.8-0.4-8.7-1.3-11.6c0-0.2-0.1-0.3-0.1-0.4
		c0-0.2,0.1-0.4,0.4-0.5c0.7-0.1,1.7-0.2,3-0.4c2.1-0.4,3.1-0.6,2.9-0.6c0.3,0,0.5,0.6,0.6,1.7c0.1,1.2,0.3,1.7,0.5,1.7
		c0,0,0.1,0,0.1-0.1c0.8-0.5,1.6-1,2.4-1.5c0.9-0.5,1.8-0.9,2.7-1.2c0.8-0.2,1.7-0.4,2.9-0.4C375.9,156.6,376.6,156.8,376.6,157.2z"
		/>
	<path class="st2" d="M406.4,170.4c0,4.1-1.3,7.6-4,10.5c-2.7,3-6.1,4.5-10.2,4.5c-4.1,0-7.5-1.5-10.2-4.5c-2.7-2.9-4-6.3-4-10.4
		s1.3-7.6,4-10.4c2.8-2.9,6.2-4.4,10.2-4.4c4,0,7.4,1.5,10.1,4.4C405.1,162.9,406.4,166.4,406.4,170.4z M400.2,170.5
		c0-2.4-0.7-4.4-2.2-6.1c-1.5-1.8-3.5-2.7-5.8-2.7s-4.3,0.9-5.8,2.6c-1.5,1.7-2.2,3.7-2.2,6.1c0,2.3,0.7,4.4,2.2,6.1
		c1.6,1.8,3.5,2.7,5.8,2.7c2.3,0,4.3-0.9,5.8-2.7C399.5,174.9,400.2,172.8,400.2,170.5z"/>
	<path class="st2" d="M417.9,144.1l0,0.4c-0.4,7.3-0.6,13.5-0.6,18.7c0,2.3,0,5.8,0.1,10.4c0.1,4.6,0.1,8.1,0.1,10.4
		c0,0.4-0.2,0.7-0.5,0.7h-5.6c-0.4,0-0.5-0.2-0.5-0.7c0-2.3,0-5.8,0.1-10.4c0-4.6,0.1-8.1,0.1-10.4c0-2.1-0.1-5.3-0.3-9.5
		s-0.3-7.4-0.3-9.5c0-0.4,0.2-0.6,0.6-0.6c0.4,0,0.9,0,1.6,0.1s1.2,0.1,1.6,0.1c0.4,0,0.9,0,1.6-0.1c0.7-0.1,1.3-0.1,1.6-0.1
		S418,143.7,417.9,144.1z"/>
	<path class="st2" d="M431.2,144.1l0,0.4c-0.4,7.3-0.6,13.5-0.6,18.7c0,2.3,0,5.8,0.1,10.4c0.1,4.6,0.1,8.1,0.1,10.4
		c0,0.4-0.2,0.7-0.5,0.7h-5.6c-0.4,0-0.5-0.2-0.5-0.7c0-2.3,0-5.8,0.1-10.4c0-4.6,0.1-8.1,0.1-10.4c0-2.1-0.1-5.3-0.3-9.5
		s-0.3-7.4-0.3-9.5c0-0.4,0.2-0.6,0.6-0.6c0.4,0,0.9,0,1.6,0.1s1.2,0.1,1.6,0.1c0.4,0,0.9,0,1.6-0.1c0.7-0.1,1.3-0.1,1.6-0.1
		S431.2,143.7,431.2,144.1z"/>
	<path class="st2" d="M465.4,158.2c0,0.1,0,0.3-0.1,0.5c-0.8,4.5-1.1,8.3-1.1,11.6c0,0.2,0.2,4.6,0.7,13.2l0,0.4
		c0,0.6-0.2,0.8-0.8,0.8c-0.5,0-1.3,0.1-2.4,0.2s-1.9,0.2-2.4,0.2c-0.4,0-0.7-0.7-0.8-2.1c-0.2-1.4-0.4-2.1-0.6-2.1
		c-0.1,0-0.6,0.4-1.6,1.1c-1.2,0.9-2.2,1.7-3.2,2.1c-1.5,0.8-3.1,1.2-4.6,1.2c-3.8,0-7-1.5-9.6-4.5c-2.5-2.9-3.7-6.3-3.7-10.1
		c0-4.3,1.2-7.9,3.7-10.8c2.6-2.9,6-4.4,10.3-4.4c3,0,5.6,1,7.8,3.1c0.3,0.4,0.8,1,1.6,1.7c0.1,0.1,0.1,0.1,0.2,0.1
		c0.1,0,0.3-0.6,0.5-1.8c0.2-1.2,0.5-1.8,0.8-1.8c0.5,0,1.5,0.1,3,0.4C464.6,157.6,465.4,157.9,465.4,158.2z M458,170.4
		c0-2.4-0.7-4.5-2.1-6.2c-1.5-1.9-3.4-2.8-5.8-2.8s-4.3,0.9-5.9,2.8c-1.5,1.8-2.3,3.8-2.3,6.2c0,2.4,0.8,4.4,2.3,6.2
		c1.6,1.8,3.5,2.7,5.9,2.7c2.3,0,4.2-0.9,5.7-2.8C457.2,174.8,458,172.8,458,170.4z"/>
	<path class="st2" d="M498.4,143.8c0,2.5-0.1,6.3-0.3,11.3c-0.2,5-0.3,8.8-0.3,11.3c0,7.7,0.2,13.6,0.5,17.5l0,0.4
		c0,0.2-0.2,0.3-0.8,0.4c-0.4,0-0.9,0-1.6,0c-0.8-0.1-1.2-0.1-1.1-0.1c-0.3,0-0.7,0-1.3,0.1c-0.6,0.1-1,0.1-1.3,0.1
		c-0.3,0-0.4-0.7-0.5-2c0-1.4-0.1-2-0.2-2.1c-0.1,0.1-0.3,0.2-0.4,0.4c-2.7,2.9-5.8,4.3-9.2,4.3c-3.9,0-7.2-1.5-9.7-4.5
		c-2.4-2.8-3.6-6.3-3.6-10.3c0-4.2,1.2-7.7,3.6-10.5c2.5-3,5.8-4.5,9.9-4.5c2.5,0,4.6,0.7,6.4,2.2c0.8,0.7,1.7,1.5,2.5,2.2
		c0.2-0.1,0.2-0.2,0.2-0.4v-9.5c0-0.6,0-1.6-0.1-2.9s-0.1-2.3-0.1-3c0-0.5,0.2-0.7,0.5-0.7c0.7,0,1.8-0.1,3.2-0.2
		c1.4-0.1,2.5-0.2,3.2-0.2C498.2,143.2,498.4,143.4,498.4,143.8z M491,170.5c0-2.3-0.7-4.4-2.2-6.2c-1.5-1.9-3.5-2.8-5.7-2.8
		c-2.4,0-4.4,0.9-5.9,2.8c-1.5,1.8-2.2,3.9-2.2,6.3c0,2.3,0.8,4.4,2.3,6.1c1.6,1.8,3.5,2.8,5.9,2.8c2.3,0,4.3-0.9,5.8-2.8
		C490.3,175,491,172.9,491,170.5z"/>
	<path class="st2" d="M530.1,170.4c0,4.1-1.3,7.6-4,10.5c-2.7,3-6.1,4.5-10.2,4.5c-4.1,0-7.5-1.5-10.2-4.5c-2.7-2.9-4-6.3-4-10.4
		s1.3-7.6,4-10.4c2.8-2.9,6.2-4.4,10.2-4.4c4,0,7.4,1.5,10.1,4.4C528.8,162.9,530.1,166.4,530.1,170.4z M523.9,170.5
		c0-2.4-0.7-4.4-2.2-6.1c-1.5-1.8-3.5-2.7-5.8-2.7s-4.3,0.9-5.8,2.6c-1.5,1.7-2.2,3.7-2.2,6.1c0,2.3,0.7,4.4,2.2,6.1
		c1.6,1.8,3.5,2.7,5.8,2.7c2.3,0,4.3-0.9,5.8-2.7C523.2,174.9,523.9,172.8,523.9,170.5z"/>
	<path class="st2" d="M551,157.2c0,2.1-0.1,4.1-0.4,5.9c-0.1,0.4-0.3,0.7-0.6,0.7c-0.4,0-1,0-1.9-0.1c-0.8-0.1-1.5-0.1-1.9-0.1
		c-2.5,0-4,0.7-4.7,2.1c-0.4,0.8-0.6,2.6-0.6,5.2v3.2c0,1.1,0,2.8,0.1,5s0.1,3.9,0.1,5c0,0.5-0.2,0.8-0.7,0.8c-0.6,0-1.5,0-2.8,0
		s-2.1,0-2.8,0c-0.4,0-0.7-0.2-0.7-0.7c0-1.6,0-4,0.1-7.1c0-3.2,0.1-5.6,0.1-7.2c0-4.8-0.4-8.7-1.3-11.6c0-0.2-0.1-0.3-0.1-0.4
		c0-0.2,0.1-0.4,0.4-0.5c0.7-0.1,1.7-0.2,3-0.4c2.1-0.4,3.1-0.6,2.9-0.6c0.3,0,0.5,0.6,0.6,1.7c0.1,1.2,0.3,1.7,0.5,1.7
		c0,0,0.1,0,0.1-0.1c0.8-0.5,1.6-1,2.4-1.5c0.9-0.5,1.8-0.9,2.7-1.2c0.8-0.2,1.7-0.4,2.9-0.4C550.2,156.6,551,156.8,551,157.2z"/>
	<path class="st2" d="M618,158.6c0,0.2-2,4.3-5.9,12.5c-1.3,2.9-3.3,7.1-6,12.8c-0.3,0.5-0.5,0.8-0.8,0.8h-5.3
		c-0.4,0-0.7-0.3-0.9-0.8c-1.4-3.4-3.5-8.8-6.2-16.1c-1.3,3.6-3.4,8.9-6.3,16.1c-0.2,0.5-0.5,0.8-0.9,0.8h-5.2
		c-0.3,0-0.6-0.3-0.8-0.8c-1.3-2.8-3.4-7.1-6.1-12.8c-3.7-7.8-5.6-12-5.6-12.5c0-1.6,0-4,0.1-7.2c0.1-3.2,0.1-5.6,0.1-7.2
		c0-0.4,0.2-0.5,0.7-0.5c0.4,0,0.9,0,1.6,0.1c0.7,0.1,1.2,0.1,1.6,0.1c0.3,0,0.8,0,1.5-0.1c0.7,0,1.2-0.1,1.5-0.1
		c0.4,0,0.6,0.1,0.6,0.4c0,1.6-0.1,4-0.3,7.2c-0.2,3.2-0.3,5.6-0.3,7.2c0,1,2,5.5,5.9,13.5c1.3,2.7,2,4,2.1,4c0,0,0.1-0.1,0.1-0.2
		c0.2-0.4,0.7-1.7,1.5-3.8c1.4-3.8,2.9-8.1,4.3-13c0.1-0.5,0.1-2,0.1-4.6c0-1.2,0-2.9-0.1-5.2c-0.1-2.3-0.1-4-0.1-5.2
		c0-0.3,0.2-0.4,0.6-0.4c0.4,0,0.9,0,1.7,0.1s1.3,0.1,1.7,0.1c0.3,0,0.8,0,1.5-0.1s1.2-0.1,1.5-0.1c0.4,0,0.7,0.2,0.7,0.5
		c0,1.2,0,3.1-0.1,5.6s-0.1,4.3-0.1,5.6c0,2,0,3.2,0,3.7c0.1,1,1.5,5.3,4.4,12.9c0.3,0.9,0.8,2.1,1.5,3.7c0,0.1,0.1,0.1,0.1,0.2
		c0.1,0,0.8-1.3,2.1-3.9c3.8-7.9,5.8-12.3,5.8-13.3c0-1.6-0.1-4-0.3-7.2s-0.3-5.6-0.3-7.1c0-0.3,0.1-0.4,0.2-0.4c0.4,0,1,0,1.7,0.1
		s1.4,0.1,1.7,0.1c0.4,0,0.9,0,1.6-0.1s1.3-0.1,1.6-0.1c0.4,0,0.6,0.1,0.7,0.4c0,0,0,0.3,0,0.8c0,1.5,0,3.8,0.1,6.9
		S618,157,618,158.6z"/>
	<path class="st2" d="M647.6,169c0,1.4-0.6,2.4-1.9,2.9c-0.8,0.3-6.9,0.9-18.1,1.7c0.3,1.7,1.2,3.2,2.8,4.4c1.6,1.2,3.2,1.7,5,1.7
		c3.1,0,5.9-1,8.5-3c0.3-0.3,0.6-0.5,0.9-0.8c0.2,0,0.3,0,0.3,0.1s0.4,0.7,1.1,2s1,2,1,2.1c0,0.1-0.2,0.3-0.5,0.7
		c-2.9,3-6.6,4.6-11,4.6c-4.5,0-8.1-1.4-10.8-4.1s-4-6.3-4-10.8c0-4,1.3-7.5,3.9-10.5c2.7-3.1,6-4.7,10-4.7c3.7,0,6.7,1.3,9.2,4
		C646.4,162,647.6,165.2,647.6,169z M640.6,167.2c0-1.6-0.6-3.1-1.9-4.3s-2.7-1.9-4.3-1.9c-1.8,0-3.4,0.7-4.8,2.2s-2.1,3.1-2.1,4.9
		c0,0.4,0.4,0.6,1.1,0.6c2.9,0,6.3-0.3,10.4-0.9C640,167.6,640.6,167.4,640.6,167.2z"/>
	<path class="st2" d="M680.7,170.5c0,3.9-1.2,7.2-3.6,10.1c-2.6,3-5.7,4.6-9.6,4.6c-2.5,0-4.8-0.6-6.7-1.9c-0.8-0.7-1.6-1.3-2.3-2
		c-0.2,0.1-0.4,0.6-0.4,1.8s-0.2,1.7-0.5,1.7h-6.2c-0.2,0-0.4-0.1-0.4-0.4c0,0,0-0.2,0.1-0.5c0.3-3.1,0.5-9.1,0.5-17.9
		c0-3.6-0.2-8.9-0.5-15.9c-0.2-4.5-0.3-6.4-0.3-5.9c0-0.5,0.3-0.8,0.8-0.8c0.7,0,1.7-0.1,3.1-0.1c0.3,0,0.8-0.1,1.7-0.2
		c0.7-0.1,1.3-0.2,1.7-0.2c0.3,0,0.5,0.2,0.5,0.7c0,0.7,0,1.7-0.1,3s-0.1,2.4-0.1,3.1c0,1,0,2.5-0.1,4.6s-0.1,3.6-0.1,4.6
		c0,0.7,0.1,1.1,0.4,1.1c0.1,0,0.3-0.1,0.4-0.3c2.1-2.7,5-4,8.5-4c4,0,7.3,1.5,9.8,4.5C679.6,162.9,680.7,166.4,680.7,170.5z
		 M674.1,170.3c0-2.3-0.7-4.4-2.2-6.2c-1.6-1.9-3.5-2.8-5.8-2.8c-2.3,0-4.3,0.9-5.9,2.8c-1.5,1.8-2.3,3.8-2.3,6.2
		c0,2.4,0.8,4.5,2.3,6.3c1.6,1.8,3.5,2.8,5.9,2.8c2.3,0,4.2-0.9,5.8-2.8C673.4,174.7,674.1,172.6,674.1,170.3z"/>
</g>
</svg>
